<?xml version="1.0" encoding="UTF-8"?>
<svg xmlns="http://www.w3.org/2000/svg" id="Icons" viewBox="0 0 60 60" width="512" height="512"><path d="M39,18a20.848,20.848,0,0,0-11.095,3.2L23.4,16.89a10.237,10.237,0,0,0-5.649-2.768A6.974,6.974,0,0,0,20,9V7A7,7,0,0,0,6,7V9a6.976,6.976,0,0,0,2.285,5.158A10.008,10.008,0,0,0,0,24V35.338A3.737,3.737,0,0,0,1.176,38.05,3.418,3.418,0,0,0,5,38.658V55.3a4.608,4.608,0,0,0,4.26,4.7c.078,0,.156.006.233.006a4.481,4.481,0,0,0,3.11-1.242,4.86,4.86,0,0,0,.4-.43,4.86,4.86,0,0,0,.4.43,4.479,4.479,0,0,0,3.346,1.236A4.607,4.607,0,0,0,21,55.3V49.76A20.988,20.988,0,1,0,39,18ZM8,9V7A5,5,0,0,1,18,7V9A5,5,0,0,1,8,9Zm3.877,11h2.245l.868,6.682-2,1.313L11,26.67Zm-.6-4h3.438l-.5,2H11.781Zm8.325,5.051A1,1,0,0,0,19,21.97V32.614a20.89,20.89,0,0,0,0,12.772V55.3A2.642,2.642,0,0,1,16.641,58a2.441,2.441,0,0,1-1.865-.687A2.48,2.48,0,0,1,14,55.5v-15.5a1,1,0,0,0-2,0V55.5a2.48,2.48,0,0,1-.776,1.813A2.446,2.446,0,0,1,9.362,58,2.642,2.642,0,0,1,7,55.3V35.5H7V24a1,1,0,0,0-2,0V35.5H5a1.483,1.483,0,0,1-1.412,1.491,1.376,1.376,0,0,1-1.043-.4A1.727,1.727,0,0,1,2,35.338V24a8.009,8.009,0,0,1,7.229-7.96l.755,3.018-.968,7.358A2.009,2.009,0,0,0,9.9,28.348l1.975,1.312a2.019,2.019,0,0,0,2.244,0L16.1,28.348a2.011,2.011,0,0,0,.885-1.94l-.967-7.351.758-3.032a8.263,8.263,0,0,1,5.244,2.306l4.211,4.037a21.149,21.149,0,0,0-2.266,2L20.69,21.246A1,1,0,0,0,19.606,21.051Zm3.03,4.82A21.068,21.068,0,0,0,21,28.24V24.308ZM39,58A19,19,0,1,1,58,39,19.021,19.021,0,0,1,39,58Z"/><path d="M50.088,29.317,29.317,50.088a1.99,1.99,0,0,0-.574,1.611,2.019,2.019,0,0,0,.9,1.487A16.991,16.991,0,0,0,53.186,29.643a2.01,2.01,0,0,0-3.1-.326ZM40,42.247l1.421-1.419A3.979,3.979,0,0,1,40,47.858Zm-2,2v3.625a3.949,3.949,0,0,1-2.176-1.452Zm15.888-3.393A14.985,14.985,0,0,1,30.731,51.5L34.4,47.836A5.929,5.929,0,0,0,38,49.908V51a1,1,0,0,0,2,0V49.91a5.983,5.983,0,0,0,2.843-10.5l8.675-8.662A15.054,15.054,0,0,1,53.888,40.851Z"/><path d="M49.257,26.3a2.019,2.019,0,0,0-.9-1.487A16.991,16.991,0,0,0,24.814,48.357a2.019,2.019,0,0,0,1.487.9,1.953,1.953,0,0,0,.2.011,1.988,1.988,0,0,0,1.409-.585L48.683,27.912A1.99,1.99,0,0,0,49.257,26.3ZM38,35.753l-1.421,1.419A3.979,3.979,0,0,1,38,30.142Zm2-2V30.131a3.949,3.949,0,0,1,2.176,1.452Zm3.6-3.592A5.929,5.929,0,0,0,40,28.092V27a1,1,0,0,0-2,0v1.09a5.983,5.983,0,0,0-2.843,10.5l-8.675,8.662A14.991,14.991,0,0,1,37.15,24.112,15.234,15.234,0,0,1,38.97,24a15.02,15.02,0,0,1,8.3,2.494Z"/></svg>
