<svg id="&#x421;&#x43B;&#x43E;&#x439;_1" enable-background="new 0 0 5000 5000" viewBox="0 0 5000 5000" xmlns="http://www.w3.org/2000/svg"><g fill="#262626"><path d="m3950.748 1009.923h-1319.089c-78.801 0-142.91 64.109-142.91 142.91v491.918c0 8.712-5.166 16.578-13.161 20.039l-212.579 92.033c-22.505 9.743-36.485 31.03-36.485 55.553 0 24.524 13.98 45.811 36.485 55.555l212.58 92.033c7.995 3.461 13.161 11.327 13.161 20.039v260.186c-50.299-71.414-126.831-121.542-214.261-138.216l-337.481-64.365v-114.596c28.622-14.125 55.05-32.99 78.281-56.221 55.762-55.762 86.472-129.902 86.472-208.761v-7.207c34.744-27.829 63.321-64.64 85.065-109.628 21.857-45.222 35.939-96.701 41.855-153.008 11.41-108.593-10.033-223.193-57.361-306.556-66.192-116.589-202.079-189.601-307.385-210.239-59.108-11.584-114.116-11.059-163.495 1.562-40.186 10.271-76.586 28.472-108.192 54.1-34.378 27.876-55.501 58.539-66.521 77.643-21.188-.937-55.877.772-93.603 15.862-35.29 14.116-66.14 36.932-91.691 67.814-30.917 37.367-53.912 86.581-68.345 146.273-14.765 61.069-14.853 121.6-.26 179.912 11.622 46.438 32.505 91.389 62.069 133.605 36.802 52.552 77.707 87.517 97.672 102.94v6.927c0 78.859 30.709 152.999 86.472 208.761 23.231 23.231 49.659 42.095 78.281 56.221v114.594l-273.088 52.059c-143.401 27.336-247.483 153.133-247.483 299.118v850.286h-105.697c-35.131 0-63.712 28.581-63.712 63.712v173.042c0 35.131 28.581 63.712 63.712 63.712h105.699v569.644c0 15.236 12.351 27.588 27.587 27.588s27.587-12.352 27.587-27.588v-569.644h1246.267v569.644c0 15.236 12.351 27.588 27.587 27.588s27.587-12.352 27.587-27.588v-569.644h105.699c35.131 0 63.711-28.581 63.711-63.712v-173.042c0-35.131-28.58-63.712-63.711-63.712h-243.267v-486.468l89.999 211.938c.142.335.291.667.446.996 42.267 89.51 121.476 155.042 217.319 179.793 27.564 7.118 55.55 10.618 83.356 10.618 68.879 0 136.617-21.487 193.827-62.693l424.979-305.627c15.41-11.099 25.659-27.52 28.861-46.239 2.719-15.897.073-31.914-7.423-45.933l79.389-54.538v175.166c0 15.236 12.351 27.588 27.587 27.588s27.587-12.352 27.587-27.588v-177.912h26.903c45.813 0 83.086-37.272 83.086-83.086v-260.561c0-45.813-37.272-83.084-83.086-83.084h-26.902v-597.749c0-15.236-12.352-27.587-27.588-27.587s-27.588 12.351-27.588 27.587v600.116c-89.247 14.288-157.658 91.81-157.658 185.02v11.035l-82.892 54.074c-23.743-26.272-64.036-31.638-93.979-11.135l-359.76 243.227c-.055.037-.109.074-.164.112-3.208 2.201-6.384 1.771-7.992 1.316s-4.542-1.747-6.125-5.303l-153.058-343.826v-368.325c0-30.725-18.219-58.465-46.415-70.672l-212.58-92.033c-.799-.346-3.231-1.399-3.231-4.921 0-3.521 2.432-4.574 3.231-4.92l212.579-92.033c28.196-12.207 46.416-39.947 46.416-70.672v-491.918c0-48.377 39.357-87.735 87.734-87.735h1319.089c48.377 0 87.735 39.358 87.735 87.735v1552.542c0 48.368-39.344 87.721-87.71 87.735-.009 0-.017 0-.026 0h-348.566c-15.236 0-27.588 12.352-27.588 27.588s12.352 27.588 27.588 27.588h348.566c.026 0 .052-.002.078-.002 78.765-.042 142.833-64.134 142.833-142.908v-1552.542c.001-78.8-64.108-142.91-142.909-142.91zm-2572.723 505.057c-57.54-82.981-75.138-172.937-52.307-267.368 21.917-90.647 63.814-149.477 124.527-174.855 44.5-18.601 84.165-12.043 86.108-11.704 13.043 2.709 25.753-4.127 30.762-16.469.725-1.667 18.609-41.975 61.832-76.236 58.245-46.17 133.734-60.572 224.375-42.81 89.921 17.623 212.774 82.511 270.015 183.335 41.854 73.721 60.721 175.982 50.47 273.55-8.187 77.921-33.263 143.724-72.047 191.052v-172.083c0-13.837-10.25-25.533-23.967-27.349-.117-.016-12.536-2.074-26.651-10.585-20.082-12.11-33.617-30.956-40.229-56.013-2.415-9.153-9.354-16.429-18.383-19.274-9.028-2.845-18.885-.862-26.111 5.252-23.451 19.843-87.329 34.767-159.522 23.34-41.019-6.492-115.953-27.266-156.956-93.455-5.838-9.425-16.749-14.44-27.706-12.729-10.954 1.709-19.821 9.811-22.51 20.566-12.232 48.928-40.102 87.744-82.834 115.37-32.36 20.92-61.843 27.54-63.244 27.846-12.943 2.534-22.077 13.837-22.077 27.032v176.532c-16.517-16.058-35.692-37.198-53.545-62.945zm108.721 143.05v-19.599c.038-.817.035-1.634 0-2.449v-213.902c14.932-5.135 35.88-13.869 58.031-27.905 40.168-25.455 70.962-59.761 90.821-100.766 40.177 40.24 96.297 67.345 162.675 77.85 39.087 6.187 79.176 6.135 115.934-.147 16.437-2.81 36.935-7.717 56.141-16.245 14.822 28.432 35.517 45.716 52.303 55.839 8.567 5.167 16.788 8.897 23.936 11.576v235.749c0 132.369-107.689 240.058-240.058 240.058h-79.724c-132.37-.001-240.059-107.69-240.059-240.059zm240.058 295.233h79.724c25.767 0 51.023-3.3 75.305-9.659v105.116c-39.334 36.603-79.72 54.363-120.159 52.805-53.277-2.049-94.71-37.052-110.175-52.14v-105.781c24.282 6.36 49.538 9.659 75.305 9.659zm-112.382 137.062c22.158 21.308 74.459 63.372 144.493 66.308 2.619.11 5.231.165 7.841.165 52.686 0 103.553-22.377 151.483-66.6l57.769 11.018-220.844 289.894-199.804-289.526zm-483.494 298.458c0-119.532 85.223-222.536 202.64-244.918l162.548-30.987 230.358 333.799v792.392h-398.659v-476.032c0-15.236-12.351-27.588-27.587-27.588s-27.587 12.352-27.587 27.588v476.032h-141.712v-850.286zm1415.677 913.998v173.042c0 4.707-3.83 8.536-8.537 8.536h-1568.014c-4.708 0-8.537-3.829-8.537-8.536v-173.042c0-4.707 3.83-8.537 8.537-8.537h133.248c.013 0 .026.001.039.001s.026-.001.039-.001h196.81c.013 0 .026.001.039.001s.026-.001.039-.001h1237.802c4.705-.001 8.535 3.829 8.535 8.537zm798.903-687.557-50.428 34.642-98.051-140.947 52.393-34.177c7.771 60.626 44.629 112.277 96.086 140.482zm-42.438-216.398c0-72.902 59.311-132.213 132.213-132.213h52.348c15.39 0 27.91 12.52 27.91 27.91v260.561c0 15.39-12.521 27.911-27.91 27.911h-52.348c-72.902 0-132.213-59.312-132.213-132.214zm-614.952 351.73c18.515 5.227 38.226 1.997 54.101-8.854l359.791-243.249c.055-.037.109-.075.164-.112 7.568-5.195 17.992-3.294 23.235 4.245l151.032 217.105c5.19 7.462 3.413 17.853-3.945 23.151l-424.979 305.627c-66.98 48.244-151.231 64.074-231.157 43.436-79.753-20.595-145.692-75.049-180.994-149.446l-142.638-335.899c-.396-.962-.844-1.897-1.342-2.801-.039-.072-.082-.141-.122-.212-.172-.306-.347-.611-.531-.909-.133-.217-.272-.428-.41-.64-.096-.146-.188-.294-.286-.439-.202-.298-.411-.588-.623-.875-.041-.056-.081-.113-.122-.168-.252-.337-.511-.666-.777-.989-.007-.008-.013-.016-.02-.024-.838-1.017-1.742-1.963-2.704-2.838-.016-.014-.031-.029-.047-.043-.292-.265-.59-.522-.893-.773-.05-.041-.099-.083-.148-.124-.265-.217-.535-.428-.808-.635-.098-.075-.196-.15-.295-.223-.226-.167-.455-.328-.686-.488-.155-.107-.31-.214-.467-.318-.179-.118-.36-.233-.541-.347-.216-.136-.432-.27-.651-.4-.129-.076-.259-.149-.388-.223-.274-.156-.549-.309-.829-.456-.083-.044-.167-.085-.25-.128-.324-.167-.652-.328-.984-.482-.046-.021-.092-.041-.137-.062-.364-.167-.731-.326-1.103-.476-.024-.01-.048-.019-.072-.028-.386-.155-.775-.302-1.17-.44-.023-.008-.047-.016-.071-.024-.387-.134-.777-.261-1.171-.378-.052-.015-.103-.029-.155-.044-.361-.105-.723-.205-1.09-.295-.115-.029-.232-.053-.348-.08-.3-.07-.601-.139-.905-.199-.231-.046-.463-.084-.696-.124-.19-.032-.378-.068-.569-.097-.426-.065-.855-.119-1.285-.163-.001 0-.002 0-.003 0-2.744-.285-5.554-.161-8.34.411-.353.072-.702.155-1.05.24-.077.019-.154.033-.231.053-2.294.582-4.472 1.451-6.496 2.567-.072.04-.141.082-.213.122-.305.172-.609.346-.908.53-.219.134-.433.275-.647.415-.143.094-.289.185-.43.281-.299.203-.591.413-.881.626-.054.04-.11.079-.164.119-.338.253-.669.514-.993.781-.006.005-.013.01-.019.016-1.017.838-1.963 1.741-2.837 2.702-.015.017-.031.034-.047.051-.262.29-.517.584-.766.884-.044.053-.09.106-.134.16-.213.26-.42.525-.623.793-.079.104-.158.207-.236.312-.161.219-.318.441-.473.665-.113.163-.226.326-.335.491-.112.17-.221.341-.329.513-.142.225-.283.452-.419.681-.069.117-.136.235-.203.353-.164.287-.324.575-.478.868-.035.067-.069.135-.104.203-.176.341-.345.685-.506 1.034-.012.026-.023.053-.035.079-.54 1.175-1 2.394-1.372 3.651-.005.016-.009.031-.013.047-.116.396-.225.794-.324 1.197-.018.074-.034.148-.051.223-.081.341-.159.684-.227 1.03-.035.178-.064.358-.096.537-.042.242-.088.483-.124.728-.054.36-.098.722-.138 1.085-.007.067-.018.134-.024.201-.106 1.032-.152 2.073-.141 3.12v621.69h-457.977v-791.676l254.921-334.626 227.582 43.405c91.58 17.466 168.891 78.743 206.807 163.916l19.941 44.795c.053.126.112.25.167.375l155.51 349.335c7.846 17.611 22.988 30.719 41.545 35.958z"/><path d="m3966.247 3322.766-281.558-27.495c-17.163-1.676-32.111-12.536-39.01-28.342l-113.154-259.28c0-.001 0-.001 0-.001-16.602-38.041-52.7-61.673-94.207-61.673-41.506 0-77.604 23.632-94.206 61.674l-113.154 259.279c-6.898 15.807-21.847 26.667-39.011 28.343l-281.557 27.495c-41.311 4.034-74.94 31.062-87.767 70.537s-1.506 81.109 29.544 108.654l211.623 187.738c12.9 11.445 18.61 29.018 14.9 45.859l-60.856 276.272c-8.93 40.535 6.384 80.871 39.963 105.268 18.189 13.216 39.171 19.889 60.271 19.889 17.853 0 35.79-4.777 52.194-14.41l243.945-143.252c14.87-8.731 33.348-8.732 48.22 0l243.945 143.252c35.792 21.019 78.888 18.917 112.466-5.479 33.579-24.397 48.892-64.734 39.963-105.268l-60.857-276.271c-3.709-16.843 2-34.415 14.9-45.86l211.624-187.738c31.05-27.545 42.37-69.179 29.544-108.654s-46.455-66.503-87.765-70.537zm21.607 137.918-211.625 187.738c-27.85 24.708-40.175 62.643-32.167 99.002l60.857 276.272c4.198 19.061-2.722 37.29-18.512 48.762-15.788 11.474-35.266 12.422-52.096 2.538l-243.944-143.252c-32.105-18.854-71.993-18.854-104.099 0l-243.945 143.252c-16.829 9.883-36.306 8.936-52.095-2.538-15.79-11.472-22.711-29.701-18.512-48.762l60.856-276.272c8.01-36.358-4.316-74.294-32.168-99.002l-211.623-187.738c-14.601-12.953-19.716-31.769-13.685-50.331s21.229-30.776 40.654-32.673l281.557-27.495c37.055-3.618 69.324-27.063 84.217-61.188l113.154-259.279c7.808-17.889 24.12-28.568 43.638-28.568 19.519 0 35.831 10.68 43.639 28.568v-.001l113.154 259.281c14.893 34.123 47.162 57.568 84.216 61.187l281.558 27.495c19.425 1.896 34.623 14.111 40.654 32.674 6.033 18.561.918 37.377-13.683 50.33z"/><path d="m1326.818 2498.781h221.533c15.236 0 27.587-12.351 27.587-27.587s-12.351-27.587-27.587-27.587h-221.533c-15.236 0-27.587 12.351-27.587 27.587s12.351 27.587 27.587 27.587z"/><path d="m2206.513 2443.606h-221.533c-15.236 0-27.587 12.351-27.587 27.587s12.351 27.587 27.587 27.587h221.533c15.236 0 27.587-12.351 27.587-27.587s-12.35-27.587-27.587-27.587z"/><path d="m1993.496 3731.108h-478.871c-15.236 0-27.587 12.351-27.587 27.587s12.352 27.587 27.587 27.587h478.871c15.236 0 27.587-12.351 27.587-27.587s-12.351-27.587-27.587-27.587z"/><path d="m1993.496 3901.739h-478.871c-15.236 0-27.587 12.351-27.587 27.587s12.352 27.587 27.587 27.587h478.871c15.236 0 27.587-12.351 27.587-27.587s-12.351-27.587-27.587-27.587z"/></g></svg>