<?xml version="1.0"?>
<svg xmlns="http://www.w3.org/2000/svg" id="Icons" viewBox="0 0 60 60" width="512" height="512"><path d="M4,48H32.051A12.994,12.994,0,1,0,46,34.051V6a4,4,0,0,0-4-4H39V1a1,1,0,0,0-2,0V2H33V1a1,1,0,0,0-2,0V2H27V1a1,1,0,0,0-2,0V2H21V1a1,1,0,0,0-2,0V2H15V1a1,1,0,0,0-2,0V2H9V1A1,1,0,0,0,7,1V2H4A4,4,0,0,0,0,6V44A4,4,0,0,0,4,48ZM2,44V11H44V34.051a12.921,12.921,0,0,0-2.029.32,2.117,2.117,0,0,0-.576-1.86l-2.823-2.883a2.07,2.07,0,0,0-2.269-.47A2.1,2.1,0,0,0,35,31H30.244l-3-3,3-3H35a2.106,2.106,0,0,0,1.308,1.845,2.065,2.065,0,0,0,2.265-.475l2.82-2.883a2.141,2.141,0,0,0,0-2.974l-2.819-2.882a2.062,2.062,0,0,0-2.266-.476A2.106,2.106,0,0,0,35,19H29a2.973,2.973,0,0,0-2.117.883L23,23.764l-3.876-3.872A2.981,2.981,0,0,0,17,19H11a2.106,2.106,0,0,0-1.308-1.845,2.064,2.064,0,0,0-2.265.475L4.6,20.513a2.141,2.141,0,0,0,0,2.974l2.819,2.882a2.065,2.065,0,0,0,2.266.476A2.106,2.106,0,0,0,11,25h4.759l3,3-3,3H11a2.106,2.106,0,0,0-1.308-1.845,2.062,2.062,0,0,0-2.265.475L4.6,32.513a2.141,2.141,0,0,0,0,2.974l2.819,2.882a2.063,2.063,0,0,0,2.266.476A2.106,2.106,0,0,0,11,37h6a2.973,2.973,0,0,0,2.117-.883L23,32.236l3.876,3.872A2.981,2.981,0,0,0,29,37h6a2.124,2.124,0,0,0,.457,1.2A12.937,12.937,0,0,0,32.051,46H4A2,2,0,0,1,2,44Zm35-7.225V36a1,1,0,0,0-1-1H29a.975.975,0,0,1-.7-.3l-4.582-4.578-.008-.012-.012-.008-6.818-6.812A1,1,0,0,0,16.17,23H10a1,1,0,0,0-1,1v.883c0,.027,0,.084-.146.089l-2.82-2.883a.134.134,0,0,1,0-.178l2.9-2.9a.1.1,0,0,1,.064.11V20a1,1,0,0,0,1,1h7a.975.975,0,0,1,.7.3l4.582,4.578.008.012.012.008,6.818,6.812A1,1,0,0,0,29.83,33H36a1,1,0,0,0,1-1v-.88c0-.043.007-.09.146-.091l2.819,2.88a.127.127,0,0,1,0,.182l-1.882,1.922A12.613,12.613,0,0,0,37,36.775ZM10,33h6.17a1,1,0,0,0,.707-.293l3.3-3.3,1.412,1.411-3.89,3.889A.967.967,0,0,1,17,35H10a1,1,0,0,0-1,1v.883c0,.027,0,.084-.146.089l-2.82-2.883a.134.134,0,0,1,0-.178l2.9-2.9a.1.1,0,0,1,.064.11V32A1,1,0,0,0,10,33ZM36,23H29.83a1,1,0,0,0-.707.293l-3.3,3.3-1.412-1.411,3.89-3.889A.967.967,0,0,1,29,21h7a1,1,0,0,0,1-1v-.883c0-.027,0-.084.146-.089l2.82,2.883a.134.134,0,0,1,0,.178l-2.9,2.9a.1.1,0,0,1-.064-.11V24A1,1,0,0,0,36,23ZM56,47A11,11,0,1,1,45,36,11.013,11.013,0,0,1,56,47ZM4,4H7V5A1,1,0,0,0,9,5V4h4V5a1,1,0,0,0,2,0V4h4V5a1,1,0,0,0,2,0V4h4V5a1,1,0,0,0,2,0V4h4V5a1,1,0,0,0,2,0V4h4V5a1,1,0,0,0,2,0V4h3a2,2,0,0,1,2,2V9H2V6A2,2,0,0,1,4,4Z"/><path d="M51.34,40.619a8.983,8.983,0,0,0-12.68,0c-.007.007-.017.009-.024.017s-.01.017-.017.024a8.983,8.983,0,0,0,0,12.68c.007.007.009.017.017.024s.017.01.024.017a8.983,8.983,0,0,0,12.68,0c.007-.007.017-.009.024-.017s.01-.017.017-.024a8.983,8.983,0,0,0,0-12.68c-.007-.007-.009-.017-.017-.024S51.347,40.626,51.34,40.619ZM51.92,46H51a1,1,0,0,0,0,2h.92A6.947,6.947,0,0,1,50.6,51.184l-.649-.649a1,1,0,0,0-1.414,1.414l.649.649A6.947,6.947,0,0,1,46,53.92V53a1,1,0,0,0-2,0v.92A6.947,6.947,0,0,1,40.816,52.6l.649-.649a1,1,0,0,0-1.414-1.414l-.649.649A6.947,6.947,0,0,1,38.08,48H39a1,1,0,0,0,0-2h-.92A6.947,6.947,0,0,1,39.4,42.816l.649.649a1,1,0,0,0,1.414-1.414l-.649-.649A6.947,6.947,0,0,1,44,40.08V41a1,1,0,0,0,2,0v-.92A6.947,6.947,0,0,1,49.184,41.4l-.649.649a1,1,0,1,0,1.414,1.414l.649-.649A6.947,6.947,0,0,1,51.92,46Z"/><path d="M46.217,46.8l.678-1.356a1,1,0,0,0-1.79-.894l-1,2a1,1,0,0,0,.188,1.154l1,1a1,1,0,0,0,1.414-1.414Z"/></svg>
