<?xml version="1.0" encoding="iso-8859-1"?>
<!-- Generator: Adobe Illustrator 19.0.0, SVG Export Plug-In . SVG Version: 6.00 Build 0)  -->
<svg version="1.1" id="Capa_1" xmlns="http://www.w3.org/2000/svg" xmlns:xlink="http://www.w3.org/1999/xlink" x="0px" y="0px"
	 viewBox="0 0 501.008 501.008" style="enable-background:new 0 0 501.008 501.008;" xml:space="preserve">
<g>
	<g>
		<g>
			<polygon points="336,482.504 16,482.504 16,114.504 0,114.504 0,498.504 352,498.504 352,466.504 336,466.504 			"/>
			<path d="M16,98.504h80v-80h240v208h16v-224H84.688L0,87.192v11.312h8H16z M80,29.816v52.688H27.312L80,29.816z"/>
			<path d="M304,170.504c0-20.904-16.176-37.92-36.632-39.656c7.816-8.544,12.632-19.88,12.632-32.344c0-26.472-21.528-48-48-48
				s-48,21.528-48,48c0,12.464,4.816,23.8,12.632,32.344C176.176,132.584,160,149.6,160,170.504v40h144V170.504z M232,66.504
				c17.648,0,32,14.352,32,32s-14.352,32-32,32s-32-14.352-32-32S214.352,66.504,232,66.504z M288,194.504H176v-24
				c0-13.232,10.768-24,24-24h64c13.232,0,24,10.768,24,24V194.504z"/>
			<path d="M440,402.504H248v-64h-16v112h224v-112h-16V402.504z M440,434.504H248v-16h192V434.504z"/>
			<path d="M216,394.504v-76.056l128,52.704l157.008-64.648L344,241.848l-157.008,64.656l13.008,5.36v82.64H216z M344,259.16
				l114.992,47.344L344,353.848l-114.992-47.344L344,259.16z"/>
			<rect x="48" y="186.504" width="64" height="16"/>
			<rect x="128" y="186.504" width="16" height="16"/>
			<rect x="48" y="154.504" width="96" height="16"/>
			<path d="M48,450.504h128v-208H48V450.504z M64,258.504h96v176H64V258.504z"/>
			<rect x="80" y="274.504" width="64" height="16"/>
			<rect x="80" y="306.504" width="64" height="16"/>
			<rect x="80" y="338.504" width="64" height="16"/>
			<rect x="80" y="370.504" width="64" height="16"/>
			<rect x="80" y="402.504" width="64" height="16"/>
		</g>
	</g>
</g>
<g>
</g>
<g>
</g>
<g>
</g>
<g>
</g>
<g>
</g>
<g>
</g>
<g>
</g>
<g>
</g>
<g>
</g>
<g>
</g>
<g>
</g>
<g>
</g>
<g>
</g>
<g>
</g>
<g>
</g>
</svg>
