<svg id="Layer_1" enable-background="new 0 0 66 66" viewBox="0 0 66 66" xmlns="http://www.w3.org/2000/svg"><g><path d="m56.74 45.36h-1.9c-.24 0-.48.11-.63.31l-4.64 5.92-4.64-5.92c-.15-.19-.38-.3-.63-.3h-1.9c-3.41 0-6.18 2.77-6.18 6.18v10.58c0 .44.36.8.8.8h25.1c.44 0 .8-.36.8-.8v-10.58c0-3.41-2.77-6.19-6.18-6.19zm4.59 15.97h-3.4v-5.88c0-.44-.36-.8-.8-.8s-.8.36-.8.8v5.88h-13.51v-5.88c0-.44-.36-.8-.8-.8s-.8.36-.8.8v5.88h-3.4v-9.79c0-2.53 2.06-4.59 4.59-4.59h1.51l5.03 6.41c.15.19.38.3.63.3s.48-.11.63-.31l5.02-6.41h1.51c2.53 0 4.59 2.06 4.59 4.59z"/><path d="m43.78 40.31c0 3.19 2.6 5.79 5.79 5.79s5.79-2.6 5.79-5.79-2.6-5.79-5.79-5.79-5.79 2.6-5.79 5.79zm10 0c0 2.32-1.88 4.2-4.2 4.2s-4.2-1.88-4.2-4.2 1.88-4.2 4.2-4.2 4.2 1.89 4.2 4.2z"/><path d="m23.59 45.36h-1.9c-.24 0-.48.11-.63.31l-4.64 5.92-4.64-5.92c-.15-.19-.38-.3-.63-.3h-1.9c-3.41 0-6.18 2.77-6.18 6.18v10.58c0 .44.36.8.8.8h25.1c.44 0 .8-.36.8-.8v-10.58c0-3.41-2.77-6.19-6.18-6.19zm4.59 15.97h-3.4v-5.88c0-.44-.36-.8-.8-.8s-.8.36-.8.8v5.88h-13.51v-5.88c0-.44-.36-.8-.8-.8s-.8.36-.8.8v5.88h-3.4v-9.79c0-2.53 2.06-4.59 4.59-4.59h1.51l5.03 6.41c.15.19.38.3.63.3s.48-.11.63-.31l5.02-6.41h1.51c2.53 0 4.59 2.06 4.59 4.59z"/><path d="m16.42 46.11c3.19 0 5.79-2.6 5.79-5.79s-2.6-5.79-5.79-5.79-5.79 2.6-5.79 5.79 2.6 5.79 5.79 5.79zm0-10c2.32 0 4.2 1.88 4.2 4.2s-1.88 4.2-4.2 4.2-4.2-1.88-4.2-4.2c0-2.31 1.89-4.2 4.2-4.2z"/><path d="m56.34 34.42c.15.18.38.28.6.28.09 0 .19-.02.28-.05.31-.12.52-.41.52-.75v-21.5c0-1.72-1.4-3.12-3.12-3.12h-15.62v-3.08c0-1.72-1.4-3.12-3.12-3.12h-24.5c-1.72 0-3.12 1.4-3.12 3.12v21.5c0 .33.21.63.52.75.09.03.18.05.28.05.23 0 .45-.1.6-.28l4.86-5.67h12.48v3.09c0 1.72 1.4 3.12 3.12 3.12h21.36zm-42.18-13.47c-.23 0-.45.1-.6.28l-3.7 4.32v-19.35c0-.84.69-1.53 1.53-1.53h24.5c.84 0 1.53.69 1.53 1.53v3.09h-7.29c-1.72 0-3.12 1.4-3.12 3.12v8.55h-12.85zm14.43 4.68v-3.88-9.35c0-.84.69-1.53 1.53-1.53h8.09 16.41c.84 0 1.53.69 1.53 1.53v19.35l-3.7-4.32c-.15-.18-.37-.28-.6-.28h-21.73c-.86.01-1.53-.66-1.53-1.52z"/><path d="m19.99 5.59c-2.5 0-4.52 2.03-4.52 4.53 0 .44.36.8.8.8s.8-.36.8-.8c0-1.62 1.32-2.93 2.93-2.93 1.56 0 2.93 1.37 2.93 2.93 0 1.26-.8 2.38-2 2.78-1.04.35-1.73 1.29-1.73 2.34v1.39c0 .44.36.8.8.8s.8-.36.8-.8v-1.39c0-.37.25-.7.65-.83 1.84-.62 3.08-2.34 3.08-4.29-.01-2.46-2.08-4.53-4.54-4.53z"/><path d="m20.56 18.15c-.07-.07-.16-.13-.26-.17-.3-.12-.66-.05-.87.17-.15.16-.23.36-.23.56s.08.41.23.56c.07.07.16.13.26.17s.2.05.3.05.21-.02.31-.05c.09-.05.18-.1.26-.17.07-.07.14-.16.17-.26.04-.09.06-.2.06-.3 0-.11-.03-.21-.06-.31-.04-.09-.1-.18-.17-.25z"/><path d="m40.83 24.04c-1.02-.41-1.52-1.05-1.75-1.47.75-.76 1.21-1.8 1.21-2.95v-3.27c0-2.32-1.89-4.21-4.21-4.21s-4.21 1.89-4.21 4.21v3.27c0 2.32 1.89 4.21 4.21 4.21.6 0 1.17-.13 1.69-.36.39.65 1.13 1.51 2.46 2.04.1.04.2.06.3.06.32 0 .61-.19.74-.5.16-.4-.04-.86-.44-1.03zm-7.38-4.41v-3.27c0-1.44 1.18-2.62 2.62-2.62s2.62 1.18 2.62 2.62v3.27c0 1.44-1.18 2.62-2.62 2.62s-2.62-1.18-2.62-2.62z"/><path d="m52.35 25.53c.41-.15.63-.61.48-1.02l-4.29-11.84c-.11-.32-.41-.53-.75-.53s-.63.21-.75.52l-4.3 11.84c-.15.41.06.87.48 1.02.09.03.18.05.27.05.33 0 .63-.2.75-.52l1.76-4.84h3.58l1.75 4.84c.15.42.6.63 1.02.48zm-5.77-6.91 1.21-3.34 1.21 3.34z"/></g></svg>