<svg height="512" viewBox="0 0 64 64" width="512" xmlns="http://www.w3.org/2000/svg"><g id="b"><g fill="rgb(0,0,0)"><path d="m62 44c-.553 0-1-.448-1-1v-39c0-.551-.448-1-1-1h-56c-.552 0-1 .449-1 1v39c0 .552-.447 1-1 1s-1-.448-1-1v-39c0-1.654 1.346-3 3-3h56c1.654 0 3 1.346 3 3v39c0 .552-.447 1-1 1z"/><circle cx="7" cy="7" r="1"/><circle cx="11" cy="7" r="1"/><circle cx="15" cy="7" r="1"/><g><g><path d="m35.049 26c-.509 0-.944-.387-.994-.904-.183-1.89.115-3.791.861-5.497.221-.506.811-.739 1.316-.515.507.221.737.811.516 1.317-.609 1.394-.853 2.951-.703 4.502.054.55-.35 1.039-.899 1.092-.032.003-.064.004-.097.004z"/><path d="m45.017 35c-.369 0-.739-.018-1.113-.054-.55-.053-.952-.542-.898-1.092.053-.549.531-.955 1.092-.898 2.579.248 5.05-.563 6.951-2.289 1.628-1.477 2.653-3.501 2.896-5.666h-8.944c-.553 0-1-.448-1-1v-8.945c-2.232.25-4.304 1.331-5.794 3.05-.363.417-.994.462-1.411.1s-.462-.993-.101-1.411c2.092-2.412 5.119-3.795 8.306-3.795.553 0 1 .448 1 1v9h9c.553 0 1 .448 1 1 0 3.096-1.314 6.066-3.607 8.147-2.049 1.86-4.635 2.853-7.376 2.853z"/><path d="m58 22h-10c-.553 0-1-.448-1-1v-10c0-.552.447-1 1-1 6.065 0 11 4.935 11 11 0 .552-.447 1-1 1zm-9-2h7.944c-.462-4.165-3.779-7.482-7.944-7.945z"/></g><path d="m40 21c-.256 0-.512-.098-.707-.293l-3.707-3.707h-5.586c-.553 0-1-.448-1-1s.447-1 1-1h6c.266 0 .52.105.707.293l4 4c.391.391.391 1.023 0 1.414-.195.195-.451.293-.707.293z"/><path d="m35 13h-5c-.553 0-1-.448-1-1s.447-1 1-1h5c.553 0 1 .448 1 1s-.447 1-1 1z"/></g><path d="m27 43c-.553 0-1-.448-1-1v-8c0-.552.447-1 1-1h11c1.103 0 2-.897 2-2s-.897-2-2-2h-30c-.552 0-1 .449-1 1v12c0 .552-.447 1-1 1s-1-.448-1-1v-12c0-1.654 1.346-3 3-3h30c2.206 0 4 1.794 4 4s-1.794 4-4 4h-10v7c0 .552-.447 1-1 1z"/><path d="m19 26c-3.309 0-6-2.691-6-6s2.691-6 6-6 6 2.691 6 6-2.691 6-6 6zm0-10c-2.206 0-4 1.794-4 4s1.794 4 4 4 4-1.794 4-4-1.794-4-4-4z"/><path d="m11 42c-.553 0-1-.448-1-1v-7c0-.552.447-1 1-1s1 .448 1 1v7c0 .552-.447 1-1 1z"/><g><path d="m53 63c-5.514 0-10-4.486-10-10s4.486-10 10-10 10 4.486 10 10-4.486 10-10 10zm0-18c-4.411 0-8 3.589-8 8s3.589 8 8 8 8-3.589 8-8-3.589-8-8-8z"/><path d="m57 58h-8c-.553 0-1-.448-1-1v-2c0-1.654 1.346-3 3-3h4c1.654 0 3 1.346 3 3v2c0 .552-.447 1-1 1zm-7-2h6v-1c0-.551-.448-1-1-1h-4c-.552 0-1 .449-1 1z"/><path d="m53 53c-1.654 0-3-1.346-3-3s1.346-3 3-3 3 1.346 3 3-1.346 3-3 3zm0-4c-.552 0-1 .449-1 1s.448 1 1 1 1-.449 1-1-.448-1-1-1z"/></g><g><path d="m32 63c-5.514 0-10-4.486-10-10s4.486-10 10-10 10 4.486 10 10-4.486 10-10 10zm0-18c-4.411 0-8 3.589-8 8s3.589 8 8 8 8-3.589 8-8-3.589-8-8-8z"/><path d="m36 58h-8c-.553 0-1-.448-1-1v-2c0-1.654 1.346-3 3-3h4c1.654 0 3 1.346 3 3v2c0 .552-.447 1-1 1zm-7-2h6v-1c0-.551-.448-1-1-1h-4c-.552 0-1 .449-1 1z"/><path d="m32 53c-1.654 0-3-1.346-3-3s1.346-3 3-3 3 1.346 3 3-1.346 3-3 3zm0-4c-.552 0-1 .449-1 1s.448 1 1 1 1-.449 1-1-.448-1-1-1z"/></g><g><path d="m11 63c-5.514 0-10-4.486-10-10s4.486-10 10-10 10 4.486 10 10-4.486 10-10 10zm0-18c-4.411 0-8 3.589-8 8s3.589 8 8 8 8-3.589 8-8-3.589-8-8-8z"/><path d="m15 58h-8c-.553 0-1-.448-1-1v-2c0-1.654 1.346-3 3-3h4c1.654 0 3 1.346 3 3v2c0 .552-.447 1-1 1zm-7-2h6v-1c0-.551-.448-1-1-1h-4c-.552 0-1 .449-1 1z"/><path d="m11 53c-1.654 0-3-1.346-3-3s1.346-3 3-3 3 1.346 3 3-1.346 3-3 3zm0-4c-.552 0-1 .449-1 1s.448 1 1 1 1-.449 1-1-.448-1-1-1z"/></g></g></g></svg>