<?xml version="1.0"?>
<svg xmlns="http://www.w3.org/2000/svg" id="Layer_1" data-name="Layer 1" viewBox="0 0 128 128"><title/><path d="M12,108H116a12.01344,12.01344,0,0,0,12-12,2.0001,2.0001,0,0,0-2-2H116V32a6.00656,6.00656,0,0,0-6-6h-6V10a6.00656,6.00656,0,0,0-6-6H30a6.00656,6.00656,0,0,0-6,6V26H18a6.00656,6.00656,0,0,0-6,6V94H2a2.0001,2.0001,0,0,0-2,2A12.01344,12.01344,0,0,0,12,108Zm92-78h6a2.00229,2.00229,0,0,1,2,2V94h-8ZM28,10a2.00229,2.00229,0,0,1,2-2H98a2.00229,2.00229,0,0,1,2,2V20H52a2,2,0,0,0,0,4h48V94H28ZM16,32a2.00229,2.00229,0,0,1,2-2h6V94H16ZM123.74707,98A8.01477,8.01477,0,0,1,116,104H12a8.01477,8.01477,0,0,1-7.74707-6Z"/><path d="M92,16h2a2,2,0,0,0,0-4H92a2,2,0,0,0,0,4Z"/><path d="M82,16h2a2,2,0,0,0,0-4H82a2,2,0,0,0,0,4Z"/><path d="M93.3291,52.56592l-2.5332-.42236A27.363,27.363,0,0,0,87.793,44.90527l1.49512-2.09375a1.99973,1.99973,0,0,0-.21289-2.57666l-6.30957-6.30957a1.99952,1.99952,0,0,0-2.57617-.21387L78.09473,35.207a27.34266,27.34266,0,0,0-7.23828-3.00244l-.42187-2.5332A1.99971,1.99971,0,0,0,68.46191,28H59.53809a1.99971,1.99971,0,0,0-1.97266,1.67139l-.42187,2.5332A27.34266,27.34266,0,0,0,49.90527,35.207l-2.09473-1.49561a1.99952,1.99952,0,0,0-2.57617.21387L38.9248,40.23486a1.99973,1.99973,0,0,0-.21289,2.57666L40.207,44.90527a27.363,27.363,0,0,0-3.00293,7.23828l-2.5332.42236A2.00011,2.00011,0,0,0,33,54.53857v8.92285a2.00011,2.00011,0,0,0,1.6709,1.97266l2.5332.42236A27.363,27.363,0,0,0,40.207,73.09473l-1.49512,2.09375a1.99973,1.99973,0,0,0,.21289,2.57666l6.30957,6.30957a2.00128,2.00128,0,0,0,2.57617.21387L49.90527,82.793a27.34266,27.34266,0,0,0,7.23828,3.00244l.42188,2.5332A1.99971,1.99971,0,0,0,59.53809,90h8.92383a1.99971,1.99971,0,0,0,1.97266-1.67139l.42188-2.5332A27.34266,27.34266,0,0,0,78.09473,82.793l2.09473,1.49561a2.00128,2.00128,0,0,0,2.57617-.21387l6.30957-6.30957a1.99973,1.99973,0,0,0,.21289-2.57666L87.793,73.09473a27.363,27.363,0,0,0,3.00293-7.23828l2.5332-.42236A2.00011,2.00011,0,0,0,95,63.46143V54.53857A2.00011,2.00011,0,0,0,93.3291,52.56592ZM91,61.76709l-2.18457.36426A1.99858,1.99858,0,0,0,87.18457,63.708a23.41547,23.41547,0,0,1-3.46484,8.35205,1.9998,1.9998,0,0,0,.03906,2.269l1.29,1.80615-3.91406,3.91357L79.32813,78.7583a2.00236,2.00236,0,0,0-2.26855-.03857A23.41187,23.41187,0,0,1,68.709,82.18408a2.00026,2.00026,0,0,0-1.57715,1.63184L66.76758,86H61.23242l-.36426-2.18408A2.00026,2.00026,0,0,0,59.291,82.18408a23.41187,23.41187,0,0,1-8.35059-3.46436,2.00151,2.00151,0,0,0-2.26855.03857l-1.80664,1.29053-3.91406-3.91357,1.29-1.80615a1.9998,1.9998,0,0,0,.03906-2.269A23.41547,23.41547,0,0,1,40.81543,63.708a1.99858,1.99858,0,0,0-1.63086-1.57666L37,61.76709V56.23291l2.18457-.36426A1.99858,1.99858,0,0,0,40.81543,54.292a23.41547,23.41547,0,0,1,3.46484-8.35205,1.9998,1.9998,0,0,0-.03906-2.269l-1.29-1.80615,3.91406-3.91357,1.80664,1.29053a2.00148,2.00148,0,0,0,2.26855.03857A23.41187,23.41187,0,0,1,59.291,35.81592a2.00026,2.00026,0,0,0,1.57715-1.63184L61.23242,32h5.53516l.36426,2.18408A2.00026,2.00026,0,0,0,68.709,35.81592a23.41187,23.41187,0,0,1,8.35059,3.46436,2.00328,2.00328,0,0,0,2.26855-.03857l1.80664-1.29053,3.91406,3.91357-1.29,1.80615a1.9998,1.9998,0,0,0-.03906,2.269A23.41547,23.41547,0,0,1,87.18457,54.292a1.99858,1.99858,0,0,0,1.63086,1.57666L91,56.23291Z"/><path d="M53.999,50a2.0001,2.0001,0,0,0-2,2V62a2,2,0,0,1-4,0,2,2,0,0,0-4,0,6,6,0,0,0,12,0V52A2.0001,2.0001,0,0,0,53.999,50Z"/><path d="M64.001,52a6.00656,6.00656,0,0,0-6,6v4a6,6,0,0,0,12,0V58A6.00656,6.00656,0,0,0,64.001,52Zm2,10a2,2,0,0,1-4,0V58a2,2,0,0,1,4,0Z"/><path d="M78.1543,55.80615H76.001V52.5a2,2,0,0,0-4,0v9.15332A5.85361,5.85361,0,0,0,77.84766,67.5h.30664a5.84692,5.84692,0,0,0,0-11.69385Zm0,7.69385h-.30664A1.84871,1.84871,0,0,1,76.001,61.65332V59.80615H78.1543a1.84692,1.84692,0,0,1,0,3.69385Z"/><path d="M117.74316,119.85693a2.0002,2.0002,0,0,0,0-3.71387l-7.13867-2.85547A17.92144,17.92144,0,0,0,103.91895,112H15a6,6,0,0,0,0,12h88.91895a17.92144,17.92144,0,0,0,6.68555-1.2876ZM103.91895,120H15a2,2,0,0,1,0-4h88.91895a13.93539,13.93539,0,0,1,5.19922,1.00146L111.61523,118l-2.49707.99854A13.93539,13.93539,0,0,1,103.91895,120Z"/></svg>
